<mxfile host="app.diagrams.net" agent="Mozilla/5.0 (Windows NT 10.0; Win64; x64) AppleWebKit/537.36 (KHTML, like Gecko) Chrome/137.0.0.0 Safari/537.36" version="27.1.5">
  <diagram name="Use Case 1: Federation Management" id="0">
    <mxGraphModel dx="1867" dy="1109" grid="1" gridSize="10" guides="1" tooltips="1" connect="1" arrows="1" fold="1" page="1" pageScale="1" pageWidth="827" pageHeight="1169" math="0" shadow="0">
      <root>
        <mxCell id="0" />
        <mxCell id="1" parent="0" />
        <mxCell id="2" value="User" style="shape=umlActor;verticalLabelPosition=bottom;verticalAlign=top;" parent="1" vertex="1">
          <mxGeometry x="170" y="520" width="30" height="60" as="geometry" />
        </mxCell>
        <mxCell id="qzPZdA-EKU5ewI6PrSis-16" value="uc Sports Management Tool" style="shape=umlFrame;whiteSpace=wrap;html=1;pointerEvents=0;recursiveResize=0;container=1;collapsible=0;width=200;height=30;" vertex="1" parent="1">
          <mxGeometry x="280" y="60" width="1170" height="1030" as="geometry" />
        </mxCell>
        <mxCell id="qzPZdA-EKU5ewI6PrSis-17" value="" style="shape=ellipse;container=1;horizontal=1;horizontalStack=0;resizeParent=1;resizeParentMax=0;resizeLast=0;html=1;dashed=0;collapsible=0;" vertex="1" parent="qzPZdA-EKU5ewI6PrSis-16">
          <mxGeometry x="425" y="140" width="180" height="120" as="geometry" />
        </mxCell>
        <mxCell id="qzPZdA-EKU5ewI6PrSis-18" value="Federation Management" style="html=1;strokeColor=none;fillColor=none;align=center;verticalAlign=middle;rotatable=0;whiteSpace=wrap;" vertex="1" parent="qzPZdA-EKU5ewI6PrSis-17">
          <mxGeometry y="10" width="180" height="30" as="geometry" />
        </mxCell>
        <mxCell id="qzPZdA-EKU5ewI6PrSis-19" value="" style="line;strokeWidth=1;fillColor=none;rotatable=0;labelPosition=right;points=[];portConstraint=eastwest;dashed=0;resizeWidth=1;" vertex="1" parent="qzPZdA-EKU5ewI6PrSis-17">
          <mxGeometry x="9" y="30" width="162" height="10" as="geometry" />
        </mxCell>
        <mxCell id="qzPZdA-EKU5ewI6PrSis-20" value="extension points" style="text;html=1;align=center;verticalAlign=middle;rotatable=0;fillColor=none;strokeColor=none;whiteSpace=wrap;" vertex="1" parent="qzPZdA-EKU5ewI6PrSis-17">
          <mxGeometry y="40" width="180" height="30" as="geometry" />
        </mxCell>
        <mxCell id="qzPZdA-EKU5ewI6PrSis-21" value="1: Assignment" style="text;html=1;align=left;verticalAlign=middle;rotatable=0;spacingLeft=25;fillColor=none;strokeColor=none;whiteSpace=wrap;" vertex="1" parent="qzPZdA-EKU5ewI6PrSis-17">
          <mxGeometry y="70" width="180" height="30" as="geometry" />
        </mxCell>
        <mxCell id="qzPZdA-EKU5ewI6PrSis-22" value="" style="shape=ellipse;container=1;horizontal=1;horizontalStack=0;resizeParent=1;resizeParentMax=0;resizeLast=0;html=1;dashed=0;collapsible=0;" vertex="1" parent="qzPZdA-EKU5ewI6PrSis-16">
          <mxGeometry x="442.49779078656854" y="280.99960606743184" width="180" height="120" as="geometry" />
        </mxCell>
        <mxCell id="qzPZdA-EKU5ewI6PrSis-23" value="Member Management" style="html=1;strokeColor=none;fillColor=none;align=center;verticalAlign=middle;rotatable=0;whiteSpace=wrap;" vertex="1" parent="qzPZdA-EKU5ewI6PrSis-22">
          <mxGeometry y="10" width="180" height="30" as="geometry" />
        </mxCell>
        <mxCell id="qzPZdA-EKU5ewI6PrSis-24" value="" style="line;strokeWidth=1;fillColor=none;rotatable=0;labelPosition=right;points=[];portConstraint=eastwest;dashed=0;resizeWidth=1;" vertex="1" parent="qzPZdA-EKU5ewI6PrSis-22">
          <mxGeometry x="9" y="30" width="162" height="10" as="geometry" />
        </mxCell>
        <mxCell id="qzPZdA-EKU5ewI6PrSis-25" value="extension points" style="text;html=1;align=center;verticalAlign=middle;rotatable=0;fillColor=none;strokeColor=none;whiteSpace=wrap;" vertex="1" parent="qzPZdA-EKU5ewI6PrSis-22">
          <mxGeometry y="30" width="180" height="30" as="geometry" />
        </mxCell>
        <mxCell id="qzPZdA-EKU5ewI6PrSis-26" value="1: Athletes" style="text;html=1;align=left;verticalAlign=middle;rotatable=0;spacingLeft=25;fillColor=none;strokeColor=none;whiteSpace=wrap;" vertex="1" parent="qzPZdA-EKU5ewI6PrSis-22">
          <mxGeometry y="59" width="180" height="30" as="geometry" />
        </mxCell>
        <mxCell id="qzPZdA-EKU5ewI6PrSis-27" value="" style="shape=ellipse;container=1;horizontal=1;horizontalStack=0;resizeParent=1;resizeParentMax=0;resizeLast=0;html=1;dashed=0;collapsible=0;" vertex="1" parent="qzPZdA-EKU5ewI6PrSis-16">
          <mxGeometry x="445" y="432" width="199.5" height="130" as="geometry" />
        </mxCell>
        <mxCell id="qzPZdA-EKU5ewI6PrSis-28" value="Competition Management" style="html=1;strokeColor=none;fillColor=none;align=center;verticalAlign=middle;rotatable=0;whiteSpace=wrap;" vertex="1" parent="qzPZdA-EKU5ewI6PrSis-27">
          <mxGeometry y="10.833333333333332" width="190" height="32.5" as="geometry" />
        </mxCell>
        <mxCell id="qzPZdA-EKU5ewI6PrSis-29" value="" style="line;strokeWidth=1;fillColor=none;rotatable=0;labelPosition=right;points=[];portConstraint=eastwest;dashed=0;resizeWidth=1;" vertex="1" parent="qzPZdA-EKU5ewI6PrSis-27">
          <mxGeometry x="9.5" y="32.5" width="171" height="10.833333333333332" as="geometry" />
        </mxCell>
        <mxCell id="qzPZdA-EKU5ewI6PrSis-30" value="extension points" style="text;html=1;align=center;verticalAlign=middle;rotatable=0;fillColor=none;strokeColor=none;whiteSpace=wrap;" vertex="1" parent="qzPZdA-EKU5ewI6PrSis-27">
          <mxGeometry x="-9.5" y="35.50333333333333" width="190" height="32.5" as="geometry" />
        </mxCell>
        <mxCell id="qzPZdA-EKU5ewI6PrSis-31" value="1: Nominate&lt;div&gt;2: Results&lt;/div&gt;&lt;div&gt;3: Flights/Timetable&lt;/div&gt;" style="text;html=1;align=left;verticalAlign=middle;rotatable=0;spacingLeft=25;fillColor=none;strokeColor=none;whiteSpace=wrap;" vertex="1" parent="qzPZdA-EKU5ewI6PrSis-27">
          <mxGeometry x="9.5" y="58" width="190" height="42" as="geometry" />
        </mxCell>
        <mxCell id="qzPZdA-EKU5ewI6PrSis-45" style="endArrow=none;exitX=0.712;exitY=0.083;exitDx=0;exitDy=0;exitPerimeter=0;entryX=0.133;entryY=1.089;entryDx=0;entryDy=0;entryPerimeter=0;" edge="1" parent="qzPZdA-EKU5ewI6PrSis-16" source="qzPZdA-EKU5ewI6PrSis-75" target="qzPZdA-EKU5ewI6PrSis-21">
          <mxGeometry relative="1" as="geometry">
            <mxPoint x="278.01999999999975" y="378.48" as="sourcePoint" />
            <mxPoint x="380" y="747" as="targetPoint" />
          </mxGeometry>
        </mxCell>
        <mxCell id="qzPZdA-EKU5ewI6PrSis-46" style="endArrow=none;" edge="1" parent="qzPZdA-EKU5ewI6PrSis-16" source="qzPZdA-EKU5ewI6PrSis-75" target="qzPZdA-EKU5ewI6PrSis-22">
          <mxGeometry relative="1" as="geometry">
            <mxPoint x="280" y="390" as="sourcePoint" />
            <mxPoint x="400" y="717" as="targetPoint" />
          </mxGeometry>
        </mxCell>
        <mxCell id="qzPZdA-EKU5ewI6PrSis-47" style="endArrow=none;" edge="1" parent="qzPZdA-EKU5ewI6PrSis-16" source="qzPZdA-EKU5ewI6PrSis-75" target="qzPZdA-EKU5ewI6PrSis-27">
          <mxGeometry relative="1" as="geometry">
            <mxPoint x="275.4999999999998" y="406.8000000000002" as="sourcePoint" />
            <mxPoint x="410" y="677" as="targetPoint" />
          </mxGeometry>
        </mxCell>
        <mxCell id="qzPZdA-EKU5ewI6PrSis-48" style="endArrow=none;exitX=0.799;exitY=0.859;exitDx=0;exitDy=0;exitPerimeter=0;" edge="1" parent="qzPZdA-EKU5ewI6PrSis-16" source="qzPZdA-EKU5ewI6PrSis-75" target="qzPZdA-EKU5ewI6PrSis-186">
          <mxGeometry relative="1" as="geometry">
            <mxPoint x="226.3599999999999" y="426" as="sourcePoint" />
            <mxPoint x="481.3702592924951" y="840" as="targetPoint" />
          </mxGeometry>
        </mxCell>
        <mxCell id="qzPZdA-EKU5ewI6PrSis-73" value="&amp;lt;&amp;lt;include&lt;span style=&quot;background-color: transparent; color: light-dark(rgb(0, 0, 0), rgb(255, 255, 255));&quot;&gt;&amp;gt;&amp;gt;&lt;/span&gt;" style="endArrow=open;html=1;rounded=0;align=center;verticalAlign=bottom;dashed=1;endFill=0;labelBackgroundColor=none;" edge="1" parent="qzPZdA-EKU5ewI6PrSis-16" source="qzPZdA-EKU5ewI6PrSis-132" target="qzPZdA-EKU5ewI6PrSis-78">
          <mxGeometry x="0.0634" y="5" relative="1" as="geometry">
            <mxPoint x="220" y="778.2801797024104" as="sourcePoint" />
            <mxPoint x="420" y="740" as="targetPoint" />
            <mxPoint as="offset" />
          </mxGeometry>
        </mxCell>
        <mxCell id="qzPZdA-EKU5ewI6PrSis-74" value="" style="resizable=0;html=1;align=center;verticalAlign=top;labelBackgroundColor=none;" connectable="0" vertex="1" parent="qzPZdA-EKU5ewI6PrSis-73">
          <mxGeometry relative="1" as="geometry" />
        </mxCell>
        <mxCell id="qzPZdA-EKU5ewI6PrSis-75" value="Login" style="ellipse;html=1;whiteSpace=wrap;" vertex="1" parent="qzPZdA-EKU5ewI6PrSis-16">
          <mxGeometry x="205" y="330" width="125" height="72" as="geometry" />
        </mxCell>
        <mxCell id="qzPZdA-EKU5ewI6PrSis-76" value="View Athletes" style="ellipse;html=1;whiteSpace=wrap;" vertex="1" parent="qzPZdA-EKU5ewI6PrSis-16">
          <mxGeometry x="140" y="454" width="125" height="72" as="geometry" />
        </mxCell>
        <mxCell id="qzPZdA-EKU5ewI6PrSis-78" value="View Results" style="ellipse;html=1;whiteSpace=wrap;" vertex="1" parent="qzPZdA-EKU5ewI6PrSis-16">
          <mxGeometry x="265" y="660" width="125" height="72" as="geometry" />
        </mxCell>
        <mxCell id="qzPZdA-EKU5ewI6PrSis-117" value="View Nominations" style="ellipse;html=1;whiteSpace=wrap;" vertex="1" parent="qzPZdA-EKU5ewI6PrSis-16">
          <mxGeometry x="283" y="798" width="125" height="72" as="geometry" />
        </mxCell>
        <mxCell id="qzPZdA-EKU5ewI6PrSis-79" value="&amp;lt;&amp;lt;include&lt;span style=&quot;background-color: transparent; color: light-dark(rgb(0, 0, 0), rgb(255, 255, 255));&quot;&gt;&amp;gt;&amp;gt;&lt;/span&gt;" style="endArrow=open;html=1;rounded=0;align=center;verticalAlign=bottom;dashed=1;endFill=0;labelBackgroundColor=none;entryX=0.039;entryY=0.338;entryDx=0;entryDy=0;entryPerimeter=0;" edge="1" parent="qzPZdA-EKU5ewI6PrSis-16" source="qzPZdA-EKU5ewI6PrSis-132" target="qzPZdA-EKU5ewI6PrSis-117">
          <mxGeometry x="0.0358" y="2" relative="1" as="geometry">
            <mxPoint x="220" y="823.1569558275678" as="sourcePoint" />
            <mxPoint x="490" y="810" as="targetPoint" />
            <mxPoint as="offset" />
          </mxGeometry>
        </mxCell>
        <mxCell id="qzPZdA-EKU5ewI6PrSis-80" value="" style="resizable=0;html=1;align=center;verticalAlign=top;labelBackgroundColor=none;" connectable="0" vertex="1" parent="qzPZdA-EKU5ewI6PrSis-79">
          <mxGeometry relative="1" as="geometry" />
        </mxCell>
        <mxCell id="qzPZdA-EKU5ewI6PrSis-120" value="View Records" style="ellipse;html=1;whiteSpace=wrap;" vertex="1" parent="qzPZdA-EKU5ewI6PrSis-16">
          <mxGeometry x="130" y="562" width="125" height="72" as="geometry" />
        </mxCell>
        <mxCell id="qzPZdA-EKU5ewI6PrSis-122" value="&amp;lt;&amp;lt;include&lt;span style=&quot;background-color: transparent; color: light-dark(rgb(0, 0, 0), rgb(255, 255, 255));&quot;&gt;&amp;gt;&amp;gt;&lt;/span&gt;" style="endArrow=open;html=1;rounded=0;align=center;verticalAlign=bottom;dashed=1;endFill=0;labelBackgroundColor=none;exitX=1;exitY=0;exitDx=0;exitDy=0;" edge="1" parent="qzPZdA-EKU5ewI6PrSis-16" source="qzPZdA-EKU5ewI6PrSis-187" target="qzPZdA-EKU5ewI6PrSis-124">
          <mxGeometry x="-0.0512" y="17" relative="1" as="geometry">
            <mxPoint x="185.69999999999982" y="218.5" as="sourcePoint" />
            <mxPoint x="317" y="220" as="targetPoint" />
            <mxPoint as="offset" />
          </mxGeometry>
        </mxCell>
        <mxCell id="qzPZdA-EKU5ewI6PrSis-123" value="" style="resizable=0;html=1;align=center;verticalAlign=top;labelBackgroundColor=none;" connectable="0" vertex="1" parent="qzPZdA-EKU5ewI6PrSis-122">
          <mxGeometry relative="1" as="geometry" />
        </mxCell>
        <mxCell id="qzPZdA-EKU5ewI6PrSis-124" value="Contact Federation" style="ellipse;html=1;whiteSpace=wrap;" vertex="1" parent="qzPZdA-EKU5ewI6PrSis-16">
          <mxGeometry x="240" y="137" width="125" height="72" as="geometry" />
        </mxCell>
        <mxCell id="qzPZdA-EKU5ewI6PrSis-132" value="View Competitions" style="ellipse;html=1;whiteSpace=wrap;" vertex="1" parent="qzPZdA-EKU5ewI6PrSis-16">
          <mxGeometry x="70" y="740" width="125" height="72" as="geometry" />
        </mxCell>
        <mxCell id="qzPZdA-EKU5ewI6PrSis-133" value="Create Sub-federations" style="ellipse;html=1;whiteSpace=wrap;" vertex="1" parent="qzPZdA-EKU5ewI6PrSis-16">
          <mxGeometry x="640" y="10" width="125" height="72" as="geometry" />
        </mxCell>
        <mxCell id="qzPZdA-EKU5ewI6PrSis-134" value="&amp;lt;&amp;lt;include&lt;span style=&quot;background-color: transparent; color: light-dark(rgb(0, 0, 0), rgb(255, 255, 255));&quot;&gt;&amp;gt;&amp;gt;&lt;/span&gt;" style="endArrow=open;html=1;rounded=0;align=center;verticalAlign=bottom;dashed=1;endFill=0;labelBackgroundColor=none;exitX=0.689;exitY=0.01;exitDx=0;exitDy=0;exitPerimeter=0;" edge="1" parent="qzPZdA-EKU5ewI6PrSis-16" source="qzPZdA-EKU5ewI6PrSis-17" target="qzPZdA-EKU5ewI6PrSis-133">
          <mxGeometry x="-0.3053" y="13" relative="1" as="geometry">
            <mxPoint x="650" y="154" as="sourcePoint" />
            <mxPoint x="795" y="120" as="targetPoint" />
            <mxPoint as="offset" />
          </mxGeometry>
        </mxCell>
        <mxCell id="qzPZdA-EKU5ewI6PrSis-135" value="" style="resizable=0;html=1;align=center;verticalAlign=top;labelBackgroundColor=none;" connectable="0" vertex="1" parent="qzPZdA-EKU5ewI6PrSis-134">
          <mxGeometry relative="1" as="geometry" />
        </mxCell>
        <mxCell id="qzPZdA-EKU5ewI6PrSis-136" value="Assign existing Sub-federations" style="ellipse;html=1;whiteSpace=wrap;" vertex="1" parent="qzPZdA-EKU5ewI6PrSis-16">
          <mxGeometry x="847.5" y="20" width="125" height="72" as="geometry" />
        </mxCell>
        <mxCell id="qzPZdA-EKU5ewI6PrSis-137" value="&amp;lt;&amp;lt;extend&lt;span style=&quot;background-color: transparent; color: light-dark(rgb(0, 0, 0), rgb(255, 255, 255));&quot;&gt;&amp;gt;&amp;gt;&lt;/span&gt;" style="endArrow=open;html=1;rounded=0;align=center;verticalAlign=bottom;dashed=1;endFill=0;labelBackgroundColor=none;exitX=1;exitY=0;exitDx=0;exitDy=0;entryX=0;entryY=0.5;entryDx=0;entryDy=0;" edge="1" parent="qzPZdA-EKU5ewI6PrSis-16" source="qzPZdA-EKU5ewI6PrSis-20" target="qzPZdA-EKU5ewI6PrSis-136">
          <mxGeometry x="-0.3053" y="13" relative="1" as="geometry">
            <mxPoint x="710" y="303" as="sourcePoint" />
            <mxPoint x="825" y="250" as="targetPoint" />
            <mxPoint as="offset" />
          </mxGeometry>
        </mxCell>
        <mxCell id="qzPZdA-EKU5ewI6PrSis-138" value="" style="resizable=0;html=1;align=center;verticalAlign=top;labelBackgroundColor=none;" connectable="0" vertex="1" parent="qzPZdA-EKU5ewI6PrSis-137">
          <mxGeometry relative="1" as="geometry" />
        </mxCell>
        <mxCell id="qzPZdA-EKU5ewI6PrSis-139" value="Manage Members" style="ellipse;html=1;whiteSpace=wrap;" vertex="1" parent="qzPZdA-EKU5ewI6PrSis-16">
          <mxGeometry x="776" y="180" width="125" height="72" as="geometry" />
        </mxCell>
        <mxCell id="qzPZdA-EKU5ewI6PrSis-140" value="&amp;lt;&amp;lt;include&lt;span style=&quot;background-color: transparent; color: light-dark(rgb(0, 0, 0), rgb(255, 255, 255));&quot;&gt;&amp;gt;&amp;gt;&lt;/span&gt;" style="endArrow=open;html=1;rounded=0;align=center;verticalAlign=bottom;dashed=1;endFill=0;labelBackgroundColor=none;exitX=0.77;exitY=0.091;exitDx=0;exitDy=0;exitPerimeter=0;" edge="1" parent="qzPZdA-EKU5ewI6PrSis-16" target="qzPZdA-EKU5ewI6PrSis-139" source="qzPZdA-EKU5ewI6PrSis-22">
          <mxGeometry x="-0.3053" y="13" relative="1" as="geometry">
            <mxPoint x="645" y="330" as="sourcePoint" />
            <mxPoint x="891" y="309" as="targetPoint" />
            <mxPoint as="offset" />
          </mxGeometry>
        </mxCell>
        <mxCell id="qzPZdA-EKU5ewI6PrSis-141" value="" style="resizable=0;html=1;align=center;verticalAlign=top;labelBackgroundColor=none;" connectable="0" vertex="1" parent="qzPZdA-EKU5ewI6PrSis-140">
          <mxGeometry relative="1" as="geometry" />
        </mxCell>
        <mxCell id="qzPZdA-EKU5ewI6PrSis-142" value="Assign Athletes to Member" style="ellipse;html=1;whiteSpace=wrap;" vertex="1" parent="qzPZdA-EKU5ewI6PrSis-16">
          <mxGeometry x="942.5" y="209" width="125" height="72" as="geometry" />
        </mxCell>
        <mxCell id="qzPZdA-EKU5ewI6PrSis-143" value="&amp;lt;&amp;lt;extend&lt;span style=&quot;background-color: transparent; color: light-dark(rgb(0, 0, 0), rgb(255, 255, 255));&quot;&gt;&amp;gt;&amp;gt;&lt;/span&gt;" style="endArrow=open;html=1;rounded=0;align=center;verticalAlign=bottom;dashed=1;endFill=0;labelBackgroundColor=none;exitX=1;exitY=0.75;exitDx=0;exitDy=0;" edge="1" parent="qzPZdA-EKU5ewI6PrSis-16" target="qzPZdA-EKU5ewI6PrSis-142" source="qzPZdA-EKU5ewI6PrSis-23">
          <mxGeometry x="-0.1385" y="9" relative="1" as="geometry">
            <mxPoint x="680" y="411" as="sourcePoint" />
            <mxPoint x="926" y="390" as="targetPoint" />
            <mxPoint as="offset" />
          </mxGeometry>
        </mxCell>
        <mxCell id="qzPZdA-EKU5ewI6PrSis-144" value="" style="resizable=0;html=1;align=center;verticalAlign=top;labelBackgroundColor=none;" connectable="0" vertex="1" parent="qzPZdA-EKU5ewI6PrSis-143">
          <mxGeometry relative="1" as="geometry" />
        </mxCell>
        <mxCell id="qzPZdA-EKU5ewI6PrSis-145" value="Manage federation" style="ellipse;html=1;whiteSpace=wrap;" vertex="1" parent="qzPZdA-EKU5ewI6PrSis-16">
          <mxGeometry x="470" y="10" width="125" height="72" as="geometry" />
        </mxCell>
        <mxCell id="qzPZdA-EKU5ewI6PrSis-146" value="&amp;lt;&amp;lt;include&lt;span style=&quot;background-color: transparent; color: light-dark(rgb(0, 0, 0), rgb(255, 255, 255));&quot;&gt;&amp;gt;&amp;gt;&lt;/span&gt;" style="endArrow=open;html=1;rounded=0;align=center;verticalAlign=bottom;dashed=1;endFill=0;labelBackgroundColor=none;exitX=0.5;exitY=0;exitDx=0;exitDy=0;" edge="1" parent="qzPZdA-EKU5ewI6PrSis-16" target="qzPZdA-EKU5ewI6PrSis-145" source="qzPZdA-EKU5ewI6PrSis-17">
          <mxGeometry x="-0.1574" y="30" relative="1" as="geometry">
            <mxPoint x="330" y="140" as="sourcePoint" />
            <mxPoint x="576" y="119" as="targetPoint" />
            <mxPoint as="offset" />
          </mxGeometry>
        </mxCell>
        <mxCell id="qzPZdA-EKU5ewI6PrSis-147" value="" style="resizable=0;html=1;align=center;verticalAlign=top;labelBackgroundColor=none;" connectable="0" vertex="1" parent="qzPZdA-EKU5ewI6PrSis-146">
          <mxGeometry relative="1" as="geometry" />
        </mxCell>
        <mxCell id="qzPZdA-EKU5ewI6PrSis-148" value="Manage competitions" style="ellipse;html=1;whiteSpace=wrap;" vertex="1" parent="qzPZdA-EKU5ewI6PrSis-16">
          <mxGeometry x="644.5" y="350" width="125" height="72" as="geometry" />
        </mxCell>
        <mxCell id="qzPZdA-EKU5ewI6PrSis-149" value="&amp;lt;&amp;lt;include&lt;span style=&quot;background-color: transparent; color: light-dark(rgb(0, 0, 0), rgb(255, 255, 255));&quot;&gt;&amp;gt;&amp;gt;&lt;/span&gt;" style="endArrow=open;html=1;rounded=0;align=center;verticalAlign=bottom;dashed=1;endFill=0;labelBackgroundColor=none;exitX=0.766;exitY=0.063;exitDx=0;exitDy=0;exitPerimeter=0;" edge="1" parent="qzPZdA-EKU5ewI6PrSis-16" target="qzPZdA-EKU5ewI6PrSis-148" source="qzPZdA-EKU5ewI6PrSis-27">
          <mxGeometry x="-0.3053" y="13" relative="1" as="geometry">
            <mxPoint x="645" y="526" as="sourcePoint" />
            <mxPoint x="891" y="505" as="targetPoint" />
            <mxPoint as="offset" />
          </mxGeometry>
        </mxCell>
        <mxCell id="qzPZdA-EKU5ewI6PrSis-150" value="" style="resizable=0;html=1;align=center;verticalAlign=top;labelBackgroundColor=none;" connectable="0" vertex="1" parent="qzPZdA-EKU5ewI6PrSis-149">
          <mxGeometry relative="1" as="geometry" />
        </mxCell>
        <mxCell id="qzPZdA-EKU5ewI6PrSis-154" value="Nominate athletes, referees, coaches" style="ellipse;html=1;whiteSpace=wrap;" vertex="1" parent="qzPZdA-EKU5ewI6PrSis-16">
          <mxGeometry x="817.5" y="390" width="125" height="72" as="geometry" />
        </mxCell>
        <mxCell id="qzPZdA-EKU5ewI6PrSis-151" value="&amp;lt;&amp;lt;extend&lt;span style=&quot;background-color: transparent; color: light-dark(rgb(0, 0, 0), rgb(255, 255, 255));&quot;&gt;&amp;gt;&amp;gt;&lt;/span&gt;" style="endArrow=open;html=1;rounded=0;align=center;verticalAlign=bottom;dashed=1;endFill=0;labelBackgroundColor=none;exitX=1;exitY=0.5;exitDx=0;exitDy=0;" edge="1" parent="qzPZdA-EKU5ewI6PrSis-16" source="qzPZdA-EKU5ewI6PrSis-27" target="qzPZdA-EKU5ewI6PrSis-154">
          <mxGeometry x="0.0634" y="5" relative="1" as="geometry">
            <mxPoint x="780" y="634" as="sourcePoint" />
            <mxPoint x="903" y="590" as="targetPoint" />
            <mxPoint as="offset" />
          </mxGeometry>
        </mxCell>
        <mxCell id="qzPZdA-EKU5ewI6PrSis-152" value="" style="resizable=0;html=1;align=center;verticalAlign=top;labelBackgroundColor=none;" connectable="0" vertex="1" parent="qzPZdA-EKU5ewI6PrSis-151">
          <mxGeometry relative="1" as="geometry" />
        </mxCell>
        <mxCell id="qzPZdA-EKU5ewI6PrSis-155" value="Extension Point: 1" style="shape=note2;boundedLbl=1;whiteSpace=wrap;html=1;size=25;verticalAlign=top;align=center;" vertex="1" parent="qzPZdA-EKU5ewI6PrSis-16">
          <mxGeometry x="790" y="480" width="240" height="60" as="geometry" />
        </mxCell>
        <mxCell id="qzPZdA-EKU5ewI6PrSis-156" value="Condition: Permission to nominate" style="resizeWidth=1;part=1;strokeColor=none;fillColor=none;align=left;spacingLeft=5;" vertex="1" parent="qzPZdA-EKU5ewI6PrSis-155">
          <mxGeometry width="240" height="25" relative="1" as="geometry" />
        </mxCell>
        <mxCell id="qzPZdA-EKU5ewI6PrSis-159" value="Nominate" style="edgeLabel;html=1;align=center;verticalAlign=middle;resizable=0;points=[];" vertex="1" connectable="0" parent="qzPZdA-EKU5ewI6PrSis-16">
          <mxGeometry x="742.5" y="480" as="geometry">
            <mxPoint x="10" y="2" as="offset" />
          </mxGeometry>
        </mxCell>
        <mxCell id="qzPZdA-EKU5ewI6PrSis-160" value="Add Results" style="ellipse;html=1;whiteSpace=wrap;" vertex="1" parent="qzPZdA-EKU5ewI6PrSis-16">
          <mxGeometry x="702.5" y="660" width="125" height="72" as="geometry" />
        </mxCell>
        <mxCell id="qzPZdA-EKU5ewI6PrSis-161" value="&amp;lt;&amp;lt;extend&lt;span style=&quot;background-color: transparent; color: light-dark(rgb(0, 0, 0), rgb(255, 255, 255));&quot;&gt;&amp;gt;&amp;gt;&lt;/span&gt;" style="endArrow=open;html=1;rounded=0;align=center;verticalAlign=bottom;dashed=1;endFill=0;labelBackgroundColor=none;exitX=0.532;exitY=1.02;exitDx=0;exitDy=0;exitPerimeter=0;" edge="1" parent="qzPZdA-EKU5ewI6PrSis-16" target="qzPZdA-EKU5ewI6PrSis-160" source="qzPZdA-EKU5ewI6PrSis-27">
          <mxGeometry x="0.4477" y="13" relative="1" as="geometry">
            <mxPoint x="565" y="688" as="sourcePoint" />
            <mxPoint x="833" y="781" as="targetPoint" />
            <mxPoint as="offset" />
          </mxGeometry>
        </mxCell>
        <mxCell id="qzPZdA-EKU5ewI6PrSis-162" value="" style="resizable=0;html=1;align=center;verticalAlign=top;labelBackgroundColor=none;" connectable="0" vertex="1" parent="qzPZdA-EKU5ewI6PrSis-161">
          <mxGeometry relative="1" as="geometry" />
        </mxCell>
        <mxCell id="qzPZdA-EKU5ewI6PrSis-163" value="Extension Point: 2" style="shape=note2;boundedLbl=1;whiteSpace=wrap;html=1;size=25;verticalAlign=top;align=center;" vertex="1" parent="qzPZdA-EKU5ewI6PrSis-16">
          <mxGeometry x="645" y="550" width="240" height="60" as="geometry" />
        </mxCell>
        <mxCell id="qzPZdA-EKU5ewI6PrSis-164" value="Condition: Permission to add results" style="resizeWidth=1;part=1;strokeColor=none;fillColor=none;align=left;spacingLeft=5;" vertex="1" parent="qzPZdA-EKU5ewI6PrSis-163">
          <mxGeometry width="240" height="25" relative="1" as="geometry" />
        </mxCell>
        <mxCell id="qzPZdA-EKU5ewI6PrSis-165" style="endArrow=none;entryX=0;entryY=1;entryDx=0;entryDy=0;dashed=1;" edge="1" parent="qzPZdA-EKU5ewI6PrSis-16" target="qzPZdA-EKU5ewI6PrSis-164">
          <mxGeometry relative="1" as="geometry">
            <mxPoint x="600" y="590" as="sourcePoint" />
            <mxPoint x="729" y="993" as="targetPoint" />
          </mxGeometry>
        </mxCell>
        <mxCell id="qzPZdA-EKU5ewI6PrSis-166" value="Results" style="edgeLabel;html=1;align=center;verticalAlign=middle;resizable=0;points=[];" vertex="1" connectable="0" parent="qzPZdA-EKU5ewI6PrSis-16">
          <mxGeometry x="595" y="620" as="geometry">
            <mxPoint x="10" y="2" as="offset" />
          </mxGeometry>
        </mxCell>
        <mxCell id="qzPZdA-EKU5ewI6PrSis-167" value="Adjust Flights/Timetable" style="ellipse;html=1;whiteSpace=wrap;" vertex="1" parent="qzPZdA-EKU5ewI6PrSis-16">
          <mxGeometry x="477.5" y="726" width="125" height="72" as="geometry" />
        </mxCell>
        <mxCell id="qzPZdA-EKU5ewI6PrSis-168" value="&amp;lt;&amp;lt;extend&lt;span style=&quot;background-color: transparent; color: light-dark(rgb(0, 0, 0), rgb(255, 255, 255));&quot;&gt;&amp;gt;&amp;gt;&lt;/span&gt;" style="endArrow=open;html=1;rounded=0;align=center;verticalAlign=bottom;dashed=1;endFill=0;labelBackgroundColor=none;exitX=0.336;exitY=0.983;exitDx=0;exitDy=0;exitPerimeter=0;" edge="1" parent="qzPZdA-EKU5ewI6PrSis-16" target="qzPZdA-EKU5ewI6PrSis-167">
          <mxGeometry x="-0.4325" y="-13" relative="1" as="geometry">
            <mxPoint x="517.4200000000002" y="562" as="sourcePoint" />
            <mxPoint x="857.58" y="983.21" as="targetPoint" />
            <mxPoint as="offset" />
          </mxGeometry>
        </mxCell>
        <mxCell id="qzPZdA-EKU5ewI6PrSis-169" value="" style="resizable=0;html=1;align=center;verticalAlign=top;labelBackgroundColor=none;" connectable="0" vertex="1" parent="qzPZdA-EKU5ewI6PrSis-168">
          <mxGeometry relative="1" as="geometry" />
        </mxCell>
        <mxCell id="qzPZdA-EKU5ewI6PrSis-170" value="Extension Point: 3" style="shape=note2;boundedLbl=1;whiteSpace=wrap;html=1;size=25;verticalAlign=top;align=center;" vertex="1" parent="qzPZdA-EKU5ewI6PrSis-16">
          <mxGeometry x="610" y="760" width="310" height="60" as="geometry" />
        </mxCell>
        <mxCell id="qzPZdA-EKU5ewI6PrSis-171" value="Condition: Permission to adjust flights/timetable" style="resizeWidth=1;part=1;strokeColor=none;fillColor=none;align=left;spacingLeft=5;" vertex="1" parent="qzPZdA-EKU5ewI6PrSis-170">
          <mxGeometry width="310" height="25" relative="1" as="geometry" />
        </mxCell>
        <mxCell id="qzPZdA-EKU5ewI6PrSis-172" style="endArrow=none;entryX=0.363;entryY=-0.008;entryDx=0;entryDy=0;dashed=1;entryPerimeter=0;" edge="1" parent="qzPZdA-EKU5ewI6PrSis-16" target="qzPZdA-EKU5ewI6PrSis-171">
          <mxGeometry relative="1" as="geometry">
            <mxPoint x="530" y="630" as="sourcePoint" />
            <mxPoint x="625" y="715" as="targetPoint" />
          </mxGeometry>
        </mxCell>
        <mxCell id="qzPZdA-EKU5ewI6PrSis-174" value="Extension Point: 1" style="shape=note2;boundedLbl=1;whiteSpace=wrap;html=1;size=25;verticalAlign=top;align=center;" vertex="1" parent="qzPZdA-EKU5ewI6PrSis-16">
          <mxGeometry x="837.5" y="301" width="252.5" height="60" as="geometry" />
        </mxCell>
        <mxCell id="qzPZdA-EKU5ewI6PrSis-175" value="Condition: Permission to assign Athlete" style="resizeWidth=1;part=1;strokeColor=none;fillColor=none;align=left;spacingLeft=5;" vertex="1" parent="qzPZdA-EKU5ewI6PrSis-174">
          <mxGeometry width="252.50000000000006" height="25" relative="1" as="geometry" />
        </mxCell>
        <mxCell id="qzPZdA-EKU5ewI6PrSis-176" value="Athletes" style="edgeLabel;html=1;align=center;verticalAlign=middle;resizable=0;points=[];" vertex="1" connectable="0" parent="qzPZdA-EKU5ewI6PrSis-16">
          <mxGeometry x="790" y="301" as="geometry">
            <mxPoint x="4" as="offset" />
          </mxGeometry>
        </mxCell>
        <mxCell id="qzPZdA-EKU5ewI6PrSis-177" style="endArrow=none;entryX=0.5;entryY=0;entryDx=0;entryDy=0;dashed=1;" edge="1" parent="qzPZdA-EKU5ewI6PrSis-16" target="qzPZdA-EKU5ewI6PrSis-175">
          <mxGeometry relative="1" as="geometry">
            <mxPoint x="807.5" y="281" as="sourcePoint" />
            <mxPoint x="846.5" y="623" as="targetPoint" />
          </mxGeometry>
        </mxCell>
        <mxCell id="qzPZdA-EKU5ewI6PrSis-181" style="endArrow=none;entryX=0;entryY=0.5;entryDx=0;entryDy=0;dashed=1;" edge="1" parent="qzPZdA-EKU5ewI6PrSis-16" target="qzPZdA-EKU5ewI6PrSis-179">
          <mxGeometry relative="1" as="geometry">
            <mxPoint x="770" y="100" as="sourcePoint" />
            <mxPoint x="932.25" y="130" as="targetPoint" />
          </mxGeometry>
        </mxCell>
        <mxCell id="qzPZdA-EKU5ewI6PrSis-180" value="Assignment" style="edgeLabel;html=1;align=center;verticalAlign=middle;resizable=0;points=[];" vertex="1" connectable="0" parent="qzPZdA-EKU5ewI6PrSis-16">
          <mxGeometry x="760" y="120" as="geometry">
            <mxPoint x="6" y="-2" as="offset" />
          </mxGeometry>
        </mxCell>
        <mxCell id="qzPZdA-EKU5ewI6PrSis-178" value="Extension Point: 1" style="shape=note2;boundedLbl=1;whiteSpace=wrap;html=1;size=25;verticalAlign=top;align=center;" vertex="1" parent="qzPZdA-EKU5ewI6PrSis-16">
          <mxGeometry x="827.5" y="100" width="212.5" height="60" as="geometry" />
        </mxCell>
        <mxCell id="qzPZdA-EKU5ewI6PrSis-179" value="Condition: Rootlevel-Admin role" style="resizeWidth=1;part=1;strokeColor=none;fillColor=none;align=left;spacingLeft=5;" vertex="1" parent="qzPZdA-EKU5ewI6PrSis-178">
          <mxGeometry width="212.50000000000006" height="25" relative="1" as="geometry" />
        </mxCell>
        <mxCell id="qzPZdA-EKU5ewI6PrSis-183" value="Manage competitions" style="ellipse;html=1;whiteSpace=wrap;" vertex="1" parent="qzPZdA-EKU5ewI6PrSis-16">
          <mxGeometry x="680" y="880" width="125" height="72" as="geometry" />
        </mxCell>
        <mxCell id="qzPZdA-EKU5ewI6PrSis-184" value="&amp;lt;&amp;lt;include&lt;span style=&quot;background-color: transparent; color: light-dark(rgb(0, 0, 0), rgb(255, 255, 255));&quot;&gt;&amp;gt;&amp;gt;&lt;/span&gt;" style="endArrow=open;html=1;rounded=0;align=center;verticalAlign=bottom;dashed=1;endFill=0;labelBackgroundColor=none;exitX=1;exitY=0.5;exitDx=0;exitDy=0;entryX=-0.008;entryY=0.417;entryDx=0;entryDy=0;entryPerimeter=0;" edge="1" parent="qzPZdA-EKU5ewI6PrSis-16" source="qzPZdA-EKU5ewI6PrSis-186" target="qzPZdA-EKU5ewI6PrSis-183">
          <mxGeometry x="-0.3053" y="13" relative="1" as="geometry">
            <mxPoint x="595" y="917.5" as="sourcePoint" />
            <mxPoint x="702" y="940" as="targetPoint" />
            <mxPoint as="offset" />
          </mxGeometry>
        </mxCell>
        <mxCell id="qzPZdA-EKU5ewI6PrSis-185" value="" style="resizable=0;html=1;align=center;verticalAlign=top;labelBackgroundColor=none;" connectable="0" vertex="1" parent="qzPZdA-EKU5ewI6PrSis-184">
          <mxGeometry relative="1" as="geometry" />
        </mxCell>
        <mxCell id="qzPZdA-EKU5ewI6PrSis-186" value="Athlete Management" style="ellipse;html=1;whiteSpace=wrap;" vertex="1" parent="qzPZdA-EKU5ewI6PrSis-16">
          <mxGeometry x="460" y="870" width="125" height="72" as="geometry" />
        </mxCell>
        <mxCell id="qzPZdA-EKU5ewI6PrSis-187" value="View Federations" style="ellipse;html=1;whiteSpace=wrap;" vertex="1" parent="qzPZdA-EKU5ewI6PrSis-16">
          <mxGeometry x="60" y="209" width="125" height="72" as="geometry" />
        </mxCell>
        <mxCell id="qzPZdA-EKU5ewI6PrSis-49" style="endArrow=none;" edge="1" parent="1" source="2" target="qzPZdA-EKU5ewI6PrSis-75">
          <mxGeometry relative="1" as="geometry">
            <mxPoint x="370" y="660" as="sourcePoint" />
            <mxPoint x="380" y="556.8421052631579" as="targetPoint" />
          </mxGeometry>
        </mxCell>
        <mxCell id="qzPZdA-EKU5ewI6PrSis-70" style="endArrow=none;" edge="1" parent="1" source="2" target="qzPZdA-EKU5ewI6PrSis-76">
          <mxGeometry relative="1" as="geometry">
            <mxPoint x="310" y="640" as="sourcePoint" />
            <mxPoint x="375.3846153846155" y="685" as="targetPoint" />
          </mxGeometry>
        </mxCell>
        <mxCell id="qzPZdA-EKU5ewI6PrSis-71" style="endArrow=none;" edge="1" parent="1" source="2" target="qzPZdA-EKU5ewI6PrSis-132">
          <mxGeometry relative="1" as="geometry">
            <mxPoint x="370" y="820" as="sourcePoint" />
            <mxPoint x="378.60465116279056" y="920" as="targetPoint" />
          </mxGeometry>
        </mxCell>
        <mxCell id="qzPZdA-EKU5ewI6PrSis-72" style="endArrow=none;entryX=0;entryY=1;entryDx=0;entryDy=0;" edge="1" parent="1" source="2" target="qzPZdA-EKU5ewI6PrSis-187">
          <mxGeometry relative="1" as="geometry">
            <mxPoint x="290" y="460" as="sourcePoint" />
            <mxPoint x="348.4000000000001" y="360" as="targetPoint" />
          </mxGeometry>
        </mxCell>
        <mxCell id="qzPZdA-EKU5ewI6PrSis-121" style="endArrow=none;" edge="1" parent="1" source="2" target="qzPZdA-EKU5ewI6PrSis-120">
          <mxGeometry relative="1" as="geometry">
            <mxPoint x="320" y="660" as="sourcePoint" />
            <mxPoint x="543" y="745" as="targetPoint" />
          </mxGeometry>
        </mxCell>
        <mxCell id="qzPZdA-EKU5ewI6PrSis-158" style="endArrow=none;entryX=0.5;entryY=0;entryDx=0;entryDy=0;dashed=1;" edge="1" parent="1" target="qzPZdA-EKU5ewI6PrSis-156">
          <mxGeometry relative="1" as="geometry">
            <mxPoint x="1040" y="520" as="sourcePoint" />
            <mxPoint x="1079" y="862" as="targetPoint" />
          </mxGeometry>
        </mxCell>
        <mxCell id="qzPZdA-EKU5ewI6PrSis-173" value="Flights/Timetable" style="edgeLabel;html=1;align=center;verticalAlign=middle;resizable=0;points=[];" vertex="1" connectable="0" parent="1">
          <mxGeometry x="750" y="698" as="geometry">
            <mxPoint x="14" y="5" as="offset" />
          </mxGeometry>
        </mxCell>
      </root>
    </mxGraphModel>
  </diagram>
</mxfile>
